<?xml version="1.0" encoding="UTF-8" standalone="no"?>
<svg
   width="24"
   height="24"
   viewBox="0 0 24 24"
   version="1.1"
   id="svg6"
   xmlns="http://www.w3.org/2000/svg"
   xmlns:svg="http://www.w3.org/2000/svg">
  <defs
     id="defs10" />
  <path
     fill="none"
     d="M0 0h24v24H0V0z"
     id="path2" />
  <path
     d="m 19,13 v 5 c 0,0.55 -0.45,1 -1,1 H 6 C 5.45,19 5,18.55 5,18 V 13 C 5,12.45 4.55,12 4,12 3.45,12 3,12.45 3,13 v 6 c 0,1.1 0.9,2 2,2 h 14 c 1.1,0 2,-0.9 2,-2 v -6 c 0,-0.55 -0.45,-1 -1,-1 -0.55,0 -1,0.45 -1,1 z"
     id="path4" />
  <path
     d="M 10.980663,7.0934721 9.1006632,8.973472 c -0.39,0.39 -1.02,0.39 -1.41,0 -0.39,-0.39 -0.39,-1.0199998 0,-1.4099998 l 3.5899998,-3.59 c 0.39,-0.39 1.02,-0.39 1.41,0 l 3.59,3.59 c 0.39,0.39 0.39,1.0199998 0,1.4099998 -0.39,0.39 -1.02,0.39 -1.41,0 l -1.89,-1.8799999 v 8.6699999 c 0,0.55 -0.45,1 -1,1 -0.55,0 -1,-0.45 -1,-1 z"
     id="path1638-5" />
</svg>
